<svg version="1.2" xmlns="http://www.w3.org/2000/svg" viewBox="0 0 81 27" width="81" height="27">
	<title>New Project</title>
	<style>
		.s0 { fill: #ffffff } 
	</style>
	<path id="path4163" fill-rule="evenodd" class="s0" d="m40 0.7l-5.4 25.8h-6.5l5.4-25.8zm33.7 21.9h-8.3l-1.4 3.9h-6.8l9.8-23.9c0.4-1.1 1.5-1.9 2.7-1.9h5.6l5.2 25.8h-6zm-1.1-5.3l-1.9-9.7-3.4 9.7zm-26.4 9.5c-2.9 0-5.7-0.6-7.2-1.3l1.2-5.7c1.5 0.7 3.4 1.7 6.6 1.6 1.9 0 3.9-0.8 3.9-2.5 0-1.1-0.8-1.9-3.4-3.2-2.4-1.2-5.7-3.3-5.6-7 0-5 4.5-8.5 10.9-8.5 2.5 0 4.5 0.6 6.1 1.1l-1.1 5.5c-3-1.4-5.5-1.3-6.4-1.1-1.9 0.2-2.8 1.2-2.8 2.1 0 3 9.1 3.4 9.1 10.2 0 5.4-4.5 8.8-11.3 8.8zm-15.6-26.1l-10.5 25.7h-6.8l-5.2-20.5c-0.3-1.3-0.6-1.7-1.5-2.3-1.6-0.9-4.1-1.7-6.4-2.2l0.1-0.7h11.1c1.4 0 2.6 0.9 3 2.6l2.7 14.9 6.7-17.5z"/>
</svg>