<svg xmlns="http://www.w3.org/2000/svg" version="1.1" xmlns:xlink="http://www.w3.org/1999/xlink" xmlns:svgjs="http://svgjs.dev/svgjs" viewBox="0 0 800 800" opacity="0.69"><defs><linearGradient x1="50%" y1="0%" x2="50%" y2="100%" id="rrreflection-grad"><stop stop-color="hsl(50, 98%, 60%)" stop-opacity="1" offset="45%"></stop><stop stop-color="hsl(50, 98%, 80%)" stop-opacity="1" offset="100%"></stop></linearGradient><linearGradient x1="50%" y1="0%" x2="50%" y2="100%" id="rrreflection-grad-2"><stop stop-color="hsl(50, 98%, 80%)" stop-opacity="1" offset="0%"></stop><stop stop-color="hsl(50, 98%, 60%)" stop-opacity="1" offset="45%"></stop></linearGradient><linearGradient gradientTransform="rotate(270)" x1="50%" y1="0%" x2="50%" y2="100%" id="rrreflection-grad-3"><stop stop-color="hsl(50, 98%, 60%)" stop-opacity="1" offset="45%"></stop><stop stop-color="hsl(50, 98%, 80%)" stop-opacity="1" offset="100%"></stop></linearGradient><linearGradient gradientTransform="rotate(270)" x1="50%" y1="0%" x2="50%" y2="100%" id="rrreflection-grad-4"><stop stop-color="hsl(50, 98%, 80%)" stop-opacity="1" offset="0%"></stop><stop stop-color="hsl(50, 98%, 60%)" stop-opacity="1" offset="45%"></stop></linearGradient></defs><g stroke-width="1.5" stroke="url(#rrreflection-grad)" fill="none"><circle r="432" cx="50%" cy="0"></circle><circle r="416" cx="50%" cy="0"></circle><circle r="400" cx="50%" cy="0"></circle><circle r="384" cx="50%" cy="0"></circle><circle r="368" cx="50%" cy="0"></circle><circle r="352" cx="50%" cy="0"></circle><circle r="336" cx="50%" cy="0"></circle><circle r="320" cx="50%" cy="0"></circle><circle r="304" cx="50%" cy="0"></circle><circle r="288" cx="50%" cy="0"></circle><circle r="272" cx="50%" cy="0"></circle><circle r="256" cx="50%" cy="0"></circle><circle r="240" cx="50%" cy="0"></circle><circle r="224" cx="50%" cy="0"></circle><circle r="208" cx="50%" cy="0"></circle><circle r="192" cx="50%" cy="0"></circle><circle r="176" cx="50%" cy="0"></circle><circle r="160" cx="50%" cy="0"></circle><circle r="144" cx="50%" cy="0"></circle><circle r="128" cx="50%" cy="0"></circle><circle r="112" cx="50%" cy="0"></circle><circle r="96" cx="50%" cy="0"></circle><circle r="80" cx="50%" cy="0"></circle><circle r="64" cx="50%" cy="0"></circle><circle r="48" cx="50%" cy="0"></circle><circle r="32" cx="50%" cy="0"></circle><circle r="16" cx="50%" cy="0"></circle></g><g stroke-width="1.5" stroke="url(#rrreflection-grad-2)" fill="none"><circle r="432" cx="50%" cy="100%"></circle><circle r="416" cx="50%" cy="100%"></circle><circle r="400" cx="50%" cy="100%"></circle><circle r="384" cx="50%" cy="100%"></circle><circle r="368" cx="50%" cy="100%"></circle><circle r="352" cx="50%" cy="100%"></circle><circle r="336" cx="50%" cy="100%"></circle><circle r="320" cx="50%" cy="100%"></circle><circle r="304" cx="50%" cy="100%"></circle><circle r="288" cx="50%" cy="100%"></circle><circle r="272" cx="50%" cy="100%"></circle><circle r="256" cx="50%" cy="100%"></circle><circle r="240" cx="50%" cy="100%"></circle><circle r="224" cx="50%" cy="100%"></circle><circle r="208" cx="50%" cy="100%"></circle><circle r="192" cx="50%" cy="100%"></circle><circle r="176" cx="50%" cy="100%"></circle><circle r="160" cx="50%" cy="100%"></circle><circle r="144" cx="50%" cy="100%"></circle><circle r="128" cx="50%" cy="100%"></circle><circle r="112" cx="50%" cy="100%"></circle><circle r="96" cx="50%" cy="100%"></circle><circle r="80" cx="50%" cy="100%"></circle><circle r="64" cx="50%" cy="100%"></circle><circle r="48" cx="50%" cy="100%"></circle><circle r="32" cx="50%" cy="100%"></circle><circle r="16" cx="50%" cy="100%"></circle></g><g stroke-width="1.5" stroke="url(#rrreflection-grad-3)" fill="none"><circle r="432" cx="0" cy="50%"></circle><circle r="416" cx="0" cy="50%"></circle><circle r="400" cx="0" cy="50%"></circle><circle r="384" cx="0" cy="50%"></circle><circle r="368" cx="0" cy="50%"></circle><circle r="352" cx="0" cy="50%"></circle><circle r="336" cx="0" cy="50%"></circle><circle r="320" cx="0" cy="50%"></circle><circle r="304" cx="0" cy="50%"></circle><circle r="288" cx="0" cy="50%"></circle><circle r="272" cx="0" cy="50%"></circle><circle r="256" cx="0" cy="50%"></circle><circle r="240" cx="0" cy="50%"></circle><circle r="224" cx="0" cy="50%"></circle><circle r="208" cx="0" cy="50%"></circle><circle r="192" cx="0" cy="50%"></circle><circle r="176" cx="0" cy="50%"></circle><circle r="160" cx="0" cy="50%"></circle><circle r="144" cx="0" cy="50%"></circle><circle r="128" cx="0" cy="50%"></circle><circle r="112" cx="0" cy="50%"></circle><circle r="96" cx="0" cy="50%"></circle><circle r="80" cx="0" cy="50%"></circle><circle r="64" cx="0" cy="50%"></circle><circle r="48" cx="0" cy="50%"></circle><circle r="32" cx="0" cy="50%"></circle><circle r="16" cx="0" cy="50%"></circle></g><g stroke-width="1.5" stroke="url(#rrreflection-grad-4)" fill="none"><circle r="432" cx="100%" cy="50%"></circle><circle r="416" cx="100%" cy="50%"></circle><circle r="400" cx="100%" cy="50%"></circle><circle r="384" cx="100%" cy="50%"></circle><circle r="368" cx="100%" cy="50%"></circle><circle r="352" cx="100%" cy="50%"></circle><circle r="336" cx="100%" cy="50%"></circle><circle r="320" cx="100%" cy="50%"></circle><circle r="304" cx="100%" cy="50%"></circle><circle r="288" cx="100%" cy="50%"></circle><circle r="272" cx="100%" cy="50%"></circle><circle r="256" cx="100%" cy="50%"></circle><circle r="240" cx="100%" cy="50%"></circle><circle r="224" cx="100%" cy="50%"></circle><circle r="208" cx="100%" cy="50%"></circle><circle r="192" cx="100%" cy="50%"></circle><circle r="176" cx="100%" cy="50%"></circle><circle r="160" cx="100%" cy="50%"></circle><circle r="144" cx="100%" cy="50%"></circle><circle r="128" cx="100%" cy="50%"></circle><circle r="112" cx="100%" cy="50%"></circle><circle r="96" cx="100%" cy="50%"></circle><circle r="80" cx="100%" cy="50%"></circle><circle r="64" cx="100%" cy="50%"></circle><circle r="48" cx="100%" cy="50%"></circle><circle r="32" cx="100%" cy="50%"></circle><circle r="16" cx="100%" cy="50%"></circle></g></svg>