<svg xmlns="http://www.w3.org/2000/svg" version="1.1" xmlns:xlink="http://www.w3.org/1999/xlink" xmlns:svgjs="http://svgjs.dev/svgjs" viewBox="0 0 800 800" opacity="0.53"><defs><linearGradient x1="50%" y1="0%" x2="50%" y2="100%" id="wwwhirl-grad"><stop stop-color="hsl(50, 98%, 60%)" stop-opacity="1" offset="45%"></stop><stop stop-color="hsl(50, 98%, 80%)" stop-opacity="1" offset="100%"></stop></linearGradient></defs><g stroke-width="2" stroke="url(#wwwhirl-grad)" fill="none" stroke-linecap="round"><path d="M37.00000553894026 409.80099979980474C37.00000553894026 409.80099979980474 182.20000110778807 366.2410011291504 182.20000110778807 366.2410011291504C182.20000110778807 366.2410011291504 327.39999667663585 411.97899973333745 327.39999667663585 411.97899973333745C327.39999667663585 411.97899973333745 472.5999922454837 368.4190010626831 472.5999922454837 368.4190010626831C472.5999922454837 368.4190010626831 617.7999878143315 433.7589990686646 617.7999878143315 433.7589990686646C617.7999878143315 433.7589990686646 762.9999833831793 380.39800069711305 762.9999833831793 380.39800069711305 " transform="rotate(198, 400, 400)"></path><path d="M48.00000537109361 409.50399864990237C48.00000537109361 409.50399864990237 188.8000010742187 367.26399993896484 188.8000010742187 367.26399993896484C188.8000010742187 367.26399993896484 329.59999677734385 411.6159985854493 329.59999677734385 411.6159985854493C329.59999677734385 411.6159985854493 470.399992480469 369.3759998745117 470.399992480469 369.3759998745117C470.399992480469 369.3759998745117 611.1999881835942 432.735997940918 611.1999881835942 432.735997940918C611.1999881835942 432.735997940918 751.9999838867193 380.99199952001953 751.9999838867193 380.99199952001953 " transform="rotate(192, 400, 400)"></path><path d="M59.00000520324693 409.2069994073487C59.00000520324693 409.2069994073487 195.40000104064939 368.28700065612793 195.40000104064939 368.28700065612793C195.40000104064939 368.28700065612793 331.79999687805184 411.2529993449097 331.79999687805184 411.2529993449097C331.79999687805184 411.2529993449097 468.1999927154543 370.33300059368895 468.1999927154543 370.33300059368895C468.1999927154543 370.33300059368895 604.5999885528569 431.7129987205201 604.5999885528569 431.7129987205201C604.5999885528569 431.7129987205201 740.9999843902592 381.58600025027465 740.9999843902592 381.58600025027465 " transform="rotate(186, 400, 400)"></path><path d="M70.00000503540025 408.91000016479495C70.00000503540025 408.91000016479495 202.00000100708007 369.310001373291 202.00000100708007 369.310001373291C202.00000100708007 369.310001373291 333.99999697875984 410.8900001043702 333.99999697875984 410.8900001043702C333.99999697875984 410.8900001043702 465.9999929504397 371.2900013128662 465.9999929504397 371.2900013128662C465.9999929504397 371.2900013128662 597.9999889221195 430.68999950012216 597.9999889221195 430.68999950012216C597.9999889221195 430.68999950012216 729.9999848937993 382.1800009805298 729.9999848937993 382.1800009805298 " transform="rotate(180, 400, 400)"></path><path d="M81.00000486755357 408.61299901489264C81.00000486755357 408.61299901489264 208.60000097351076 370.33300018310547 208.60000097351076 370.33300018310547C208.60000097351076 370.33300018310547 336.19999707946783 410.526998956482 336.19999707946783 410.526998956482C336.19999707946783 410.526998956482 463.799993185425 372.2470001246948 463.799993185425 372.2470001246948C463.799993185425 372.2470001246948 591.3999892913822 429.66699837237553 591.3999892913822 429.66699837237553C591.3999892913822 429.66699837237553 718.9999853973393 382.7739998034363 718.9999853973393 382.7739998034363 " transform="rotate(174, 400, 400)"></path><path d="M92.00000469970689 408.3159997723389C92.00000469970689 408.3159997723389 215.2000009399414 371.35600090026855 215.2000009399414 371.35600090026855C215.2000009399414 371.35600090026855 338.3999971801759 410.1639997159424 338.3999971801759 410.1639997159424C338.3999971801759 410.1639997159424 461.5999934204104 373.20400084387205 461.5999934204104 373.20400084387205C461.5999934204104 373.20400084387205 584.7999896606449 428.6439991519776 584.7999896606449 428.6439991519776C584.7999896606449 428.6439991519776 707.9999859008793 383.36800053369143 707.9999859008793 383.36800053369143 " transform="rotate(168, 400, 400)"></path><path d="M103.00000453186021 408.0190005297852C103.00000453186021 408.0190005297852 221.80000090637208 372.37900161743164 221.80000090637208 372.37900161743164C221.80000090637208 372.37900161743164 340.5999972808839 409.8010004754029 340.5999972808839 409.8010004754029C340.5999972808839 409.8010004754029 459.39999365539575 374.1610015630493 459.39999365539575 374.1610015630493C459.39999365539575 374.1610015630493 578.1999900299077 427.62099993157966 578.1999900299077 427.62099993157966C578.1999900299077 427.62099993157966 696.9999864044194 383.96200126394655 696.9999864044194 383.96200126394655 " transform="rotate(162, 400, 400)"></path><path d="M114.00000436401353 407.72199937988285C114.00000436401353 407.72199937988285 228.4000008728027 373.4020004272461 228.4000008728027 373.4020004272461C228.4000008728027 373.4020004272461 342.7999973815919 409.4379993275147 342.7999973815919 409.4379993275147C342.7999973815919 409.4379993275147 457.19999389038105 375.1180003748779 457.19999389038105 375.1180003748779C457.19999389038105 375.1180003748779 571.5999903991703 426.5979988038331 571.5999903991703 426.5979988038331C571.5999903991703 426.5979988038331 685.9999869079594 384.55600008685303 685.9999869079594 384.55600008685303 " transform="rotate(156, 400, 400)"></path><path d="M125.00000419616688 407.4250001373291C125.00000419616688 407.4250001373291 235.0000008392334 374.4250011444092 235.0000008392334 374.4250011444092C235.0000008392334 374.4250011444092 344.9999974822999 409.07500008697514 344.9999974822999 409.07500008697514C344.9999974822999 409.07500008697514 454.9999941253664 376.07500109405515 454.9999941253664 376.07500109405515C454.9999941253664 376.07500109405515 564.999990768433 425.5749995834351 564.999990768433 425.5749995834351C564.999990768433 425.5749995834351 674.9999874114994 385.15000081710815 674.9999874114994 385.15000081710815 " transform="rotate(150, 400, 400)"></path><path d="M136.0000040283202 407.1280008947754C136.0000040283202 407.1280008947754 241.60000080566408 375.44800186157227 241.60000080566408 375.44800186157227C241.60000080566408 375.44800186157227 347.19999758300787 408.71200084643556 347.19999758300787 408.71200084643556C347.19999758300787 408.71200084643556 452.7999943603518 377.0320018132324 452.7999943603518 377.0320018132324C452.7999943603518 377.0320018132324 558.3999911376957 424.55200036303717 558.3999911376957 424.55200036303717C558.3999911376957 424.55200036303717 663.9999879150395 385.74400154736327 663.9999879150395 385.74400154736327 " transform="rotate(144, 400, 400)"></path><path d="M147.00000386047353 406.83099974487305C147.00000386047353 406.83099974487305 248.2000007720947 376.4710006713867 248.2000007720947 376.4710006713867C248.2000007720947 376.4710006713867 349.3999976837159 408.3489996985474 349.3999976837159 408.3489996985474C349.3999976837159 408.3489996985474 450.5999945953371 377.98900062506107 450.5999945953371 377.98900062506107C450.5999945953371 377.98900062506107 551.7999915069583 423.5289992352906 551.7999915069583 423.5289992352906C551.7999915069583 423.5289992352906 652.9999884185795 386.3380003702698 652.9999884185795 386.3380003702698 " transform="rotate(138, 400, 400)"></path><path d="M158.00000369262685 406.53399859497074C158.00000369262685 406.53399859497074 254.8000007385254 377.4939994812012 254.8000007385254 377.4939994812012C254.8000007385254 377.4939994812012 351.59999778442386 407.9859985506592 351.59999778442386 407.9859985506592C351.59999778442386 407.9859985506592 448.39999483032244 378.9459994368897 448.39999483032244 378.9459994368897C448.39999483032244 378.9459994368897 545.199991876221 422.505998107544 545.199991876221 422.505998107544C545.199991876221 422.505998107544 641.9999889221194 386.9319991931763 641.9999889221194 386.9319991931763 " transform="rotate(132, 400, 400)"></path><path d="M169.00000352478017 406.236999352417C169.00000352478017 406.236999352417 261.400000704956 378.51700019836426 261.400000704956 378.51700019836426C261.400000704956 378.51700019836426 353.7999978851319 407.62299931011967 353.7999978851319 407.62299931011967C353.7999978851319 407.62299931011967 446.1999950653078 379.9030001560669 446.1999950653078 379.9030001560669C446.1999950653078 379.9030001560669 538.5999922454837 421.48299888714604 538.5999922454837 421.48299888714604C538.5999922454837 421.48299888714604 630.9999894256596 387.5259999234314 630.9999894256596 387.5259999234314 " transform="rotate(126, 400, 400)"></path><path d="M180.0000033569335 405.9400001098633C180.0000033569335 405.9400001098633 268.0000006713867 379.54000091552734 268.0000006713867 379.54000091552734C268.0000006713867 379.54000091552734 355.9999979858399 407.2600000695801 355.9999979858399 407.2600000695801C355.9999979858399 407.2600000695801 443.99999530029316 380.86000087524417 443.99999530029316 380.86000087524417C443.99999530029316 380.86000087524417 531.9999926147464 420.4599996667481 531.9999926147464 420.4599996667481C531.9999926147464 420.4599996667481 619.9999899291995 388.12000065368653 619.9999899291995 388.12000065368653 " transform="rotate(120, 400, 400)"></path><path d="M191.0000031890868 405.64299895996095C191.0000031890868 405.64299895996095 274.6000006378174 380.5629997253418 274.6000006378174 380.5629997253418C274.6000006378174 380.5629997253418 358.1999980865479 406.89699892169193 358.1999980865479 406.89699892169193C358.1999980865479 406.89699892169193 441.79999553527847 381.8169996870728 441.79999553527847 381.8169996870728C441.79999553527847 381.8169996870728 525.399992984009 419.4369985390015 525.399992984009 419.4369985390015C525.399992984009 419.4369985390015 608.9999904327395 388.713999476593 608.9999904327395 388.713999476593 " transform="rotate(114, 400, 400)"></path><path d="M202.00000302124016 405.34599971740727C202.00000302124016 405.34599971740727 281.20000060424803 381.5860004425049 281.20000060424803 381.5860004425049C281.20000060424803 381.5860004425049 360.3999981872559 406.53399968115235 360.3999981872559 406.53399968115235C360.3999981872559 406.53399968115235 439.59999577026383 382.77400040625 439.59999577026383 382.77400040625C439.59999577026383 382.77400040625 518.7999933532717 418.41399931860354 518.7999933532717 418.41399931860354C518.7999933532717 418.41399931860354 597.9999909362796 389.30800020684813 597.9999909362796 389.30800020684813 " transform="rotate(108, 400, 400)"></path><path d="M213.00000285339348 405.04900047485353C213.00000285339348 405.04900047485353 287.8000005706787 382.60900115966797 287.8000005706787 382.60900115966797C287.8000005706787 382.60900115966797 362.5999982879639 406.17100044061283 362.5999982879639 406.17100044061283C362.5999982879639 406.17100044061283 437.39999600524914 383.73100112542727 437.39999600524914 383.73100112542727C437.39999600524914 383.73100112542727 512.1999937225344 417.3910000982056 512.1999937225344 417.3910000982056C512.1999937225344 417.3910000982056 586.9999914398196 389.90200093710325 586.9999914398196 389.90200093710325 " transform="rotate(102, 400, 400)"></path><path d="M224.0000026855468 404.7519993249512C224.0000026855468 404.7519993249512 294.40000053710935 383.6319999694824 294.40000053710935 383.6319999694824C294.40000053710935 383.6319999694824 364.79999838867195 405.8079992927246 364.79999838867195 405.8079992927246C364.79999838867195 405.8079992927246 435.1999962402345 384.6879999372559 435.1999962402345 384.6879999372559C435.1999962402345 384.6879999372559 505.5999940917971 416.36799897045904 505.5999940917971 416.36799897045904C505.5999940917971 416.36799897045904 575.9999919433596 390.4959997600098 575.9999919433596 390.4959997600098 " transform="rotate(96, 400, 400)"></path><path d="M235.00000251770012 404.4550000823975C235.00000251770012 404.4550000823975 301.00000050354004 384.6550006866455 301.00000050354004 384.6550006866455C301.00000050354004 384.6550006866455 366.9999984893799 405.4450000521851 366.9999984893799 405.4450000521851C366.9999984893799 405.4450000521851 432.99999647521986 385.6450006564331 432.99999647521986 385.6450006564331C432.99999647521986 385.6450006564331 498.99999446105977 415.34499975006105 498.99999446105977 415.34499975006105C498.99999446105977 415.34499975006105 564.9999924468996 391.0900004902649 564.9999924468996 391.0900004902649 " transform="rotate(90, 400, 400)"></path><path d="M246.00000234985345 404.1579998861695C246.00000234985345 404.1579998861695 307.6000004699707 385.6780004501343 307.6000004699707 385.6780004501343C307.6000004699707 385.6780004501343 369.19999859008794 405.0819998579712 369.19999859008794 405.0819998579712C369.19999859008794 405.0819998579712 430.79999671020516 386.60200042193605 430.79999671020516 386.60200042193605C430.79999671020516 386.60200042193605 492.39999483032244 414.3219995759888 492.39999483032244 414.3219995759888C492.39999483032244 414.3219995759888 553.9999929504397 391.6840002668457 553.9999929504397 391.6840002668457 " transform="rotate(84, 400, 400)"></path><path d="M257.00000218200677 403.8609996899414C257.00000218200677 403.8609996899414 314.20000043640135 386.70100021362305 314.20000043640135 386.70100021362305C314.20000043640135 386.70100021362305 371.39999869079594 404.71899966375736 371.39999869079594 404.71899966375736C371.39999869079594 404.71899966375736 428.5999969451905 387.559000187439 428.5999969451905 387.559000187439C428.5999969451905 387.559000187439 485.79999519958517 413.29899940191655 485.79999519958517 413.29899940191655C485.79999519958517 413.29899940191655 542.9999934539796 392.2780000434265 542.9999934539796 392.2780000434265 " transform="rotate(78, 400, 400)"></path><path d="M268.0000020141601 403.5640004473877C268.0000020141601 403.5640004473877 320.80000040283204 387.72400093078613 320.80000040283204 387.72400093078613C320.80000040283204 387.72400093078613 373.59999879150394 404.3560004232178 373.59999879150394 404.3560004232178C373.59999879150394 404.3560004232178 426.3999971801759 388.5160009066162 426.3999971801759 388.5160009066162C426.3999971801759 388.5160009066162 479.19999556884784 412.27600018151855 479.19999556884784 412.27600018151855C479.19999556884784 412.27600018151855 531.9999939575198 392.87200077368163 531.9999939575198 392.87200077368163 " transform="rotate(72, 400, 400)"></path><path d="M279.00000947570794 403.2670002511597C279.00000947570794 403.2670002511597 327.4000079986572 388.7470006942749 327.4000079986572 388.7470006942749C327.4000079986572 388.7470006942749 375.80000652160646 403.99300022900394 375.80000652160646 403.99300022900394C375.80000652160646 403.99300022900394 424.2000050445557 389.47300067211916 424.2000050445557 389.47300067211916C424.2000050445557 389.47300067211916 472.60000356750504 411.2530000074463 472.60000356750504 411.2530000074463C472.60000356750504 411.2530000074463 521.0000020904542 393.46600055026244 521.0000020904542 393.46600055026244 " transform="rotate(66, 400, 400)"></path><path d="M290.0000093078613 402.97000005493163C290.0000093078613 402.97000005493163 334.0000079650879 389.7700004577637 334.0000079650879 389.7700004577637C334.0000079650879 389.7700004577637 378.00000662231446 403.63000003479004 378.00000662231446 403.63000003479004C378.00000662231446 403.63000003479004 422.00000527954114 390.4300004376221 422.00000527954114 390.4300004376221C422.00000527954114 390.4300004376221 466.0000039367677 410.22999983337405 466.0000039367677 410.22999983337405C466.0000039367677 410.22999983337405 510.0000025939943 394.06000032684324 510.0000025939943 394.06000032684324 " transform="rotate(60, 400, 400)"></path><path d="M301.00000914001464 402.67299985870363C301.00000914001464 402.67299985870363 340.6000079315186 390.79300022125244 340.6000079315186 390.79300022125244C340.6000079315186 390.79300022125244 380.2000067230225 403.2669998405762 380.2000067230225 403.2669998405762C380.2000067230225 403.2669998405762 419.80000551452645 391.387000203125 419.80000551452645 391.387000203125C419.80000551452645 391.387000203125 459.4000043060304 409.2069996593018 459.4000043060304 409.2069996593018C459.4000043060304 409.2069996593018 499.0000030975343 394.6540001034241 499.0000030975343 394.6540001034241 " transform="rotate(54, 400, 400)"></path><path d="M312.00000897216796 402.3759996624756C312.00000897216796 402.3759996624756 347.2000078979492 391.8159999847412 347.2000078979492 391.8159999847412C347.2000078979492 391.8159999847412 382.4000068237305 402.9039996463623 382.4000068237305 402.9039996463623C382.4000068237305 402.9039996463623 417.60000574951175 392.34399996862794 417.60000574951175 392.34399996862794C417.60000574951175 392.34399996862794 452.80000467529305 408.1839994852295 452.80000467529305 408.1839994852295C452.80000467529305 408.1839994852295 488.00000360107435 395.2479998800049 488.00000360107435 395.2479998800049 " transform="rotate(48, 400, 400)"></path><path d="M323.0000088043213 402.07899994308474C323.0000088043213 402.07899994308474 353.8000078643799 392.83900022506714 353.8000078643799 392.83900022506714C353.8000078643799 392.83900022506714 384.6000069244385 402.5409999289856 384.6000069244385 402.5409999289856C384.6000069244385 402.5409999289856 415.4000059844971 393.301000210968 415.4000059844971 393.301000210968C415.4000059844971 393.301000210968 446.2000050445557 407.1609997879944 446.2000050445557 407.1609997879944C446.2000050445557 407.1609997879944 477.0000041046144 395.84200013342286 477.0000041046144 395.84200013342286 " transform="rotate(42, 400, 400)"></path><path d="M334.0000086364746 401.7819997468567C334.0000086364746 401.7819997468567 360.4000078308105 393.8619999885559 360.4000078308105 393.8619999885559C360.4000078308105 393.8619999885559 386.8000070251465 402.17799973477173 386.8000070251465 402.17799973477173C386.8000070251465 402.17799973477173 413.2000062194825 394.25799997647096 413.2000062194825 394.25799997647096C413.2000062194825 394.25799997647096 439.60000541381845 406.13799961392215 439.60000541381845 406.13799961392215C439.60000541381845 406.13799961392215 466.0000046081544 396.43599991000366 466.0000046081544 396.43599991000366 " transform="rotate(36, 400, 400)"></path><path d="M345.0000008392334 401.48500002746584C345.0000008392334 401.48500002746584 367.0000001678467 394.88500022888184 367.0000001678467 394.88500022888184C367.0000001678467 394.88500022888184 388.99999949645996 401.81500001739505 388.99999949645996 401.81500001739505C388.99999949645996 401.81500001739505 410.9999988250733 395.21500021881104 410.9999988250733 395.21500021881104C410.9999988250733 395.21500021881104 432.9999981536866 405.114999916687 432.9999981536866 405.114999916687C432.9999981536866 405.114999916687 454.9999974822999 397.0300001634216 454.9999974822999 397.0300001634216 " transform="rotate(30, 400, 400)"></path><path d="M356.0000006713867 401.1879998312378C356.0000006713867 401.1879998312378 373.60000013427737 395.9079999923706 373.60000013427737 395.9079999923706C373.60000013427737 395.9079999923706 391.199999597168 401.45199982318115 391.199999597168 401.45199982318115C391.199999597168 401.45199982318115 408.7999990600586 396.17199998431397 408.7999990600586 396.17199998431397C408.7999990600586 396.17199998431397 426.39999852294926 404.09199974261475 426.39999852294926 404.09199974261475C426.39999852294926 404.09199974261475 443.9999979858399 397.6239999400024 443.9999979858399 397.6239999400024 " transform="rotate(24, 400, 400)"></path><path d="M367.00000050354004 400.89100011184695C367.00000050354004 400.89100011184695 380.200000100708 396.93100023269653 380.200000100708 396.93100023269653C380.200000100708 396.93100023269653 393.39999969787596 401.0890001058045 393.39999969787596 401.0890001058045C393.39999969787596 401.0890001058045 406.599999295044 397.12900022665406 406.599999295044 397.12900022665406C406.599999295044 397.12900022665406 419.799998892212 403.06900004537965 419.799998892212 403.06900004537965C419.799998892212 403.06900004537965 432.99999848937995 398.21800019342044 432.99999848937995 398.21800019342044 " transform="rotate(18, 400, 400)"></path><path d="M378.00000033569336 400.59400039245605C378.00000033569336 400.59400039245605 386.8000000671387 397.95400047302246 386.8000000671387 397.95400047302246C386.8000000671387 397.95400047302246 395.599999798584 400.72600038842774 395.599999798584 400.72600038842774C395.599999798584 400.72600038842774 404.3999995300293 398.08600046899414 404.3999995300293 398.08600046899414C404.3999995300293 398.08600046899414 413.19999926147466 402.04600034814456 413.19999926147466 402.04600034814456C413.19999926147466 402.04600034814456 421.9999989929199 398.8120004468384 421.9999989929199 398.8120004468384 " transform="rotate(12, 400, 400)"></path><path d="M389.0000001678467 400.29700019622805C389.0000001678467 400.29700019622805 393.4000000335693 398.97700023651123 393.4000000335693 398.97700023651123C393.4000000335693 398.97700023651123 397.799999899292 400.3630001942139 397.799999899292 400.3630001942139C397.799999899292 400.3630001942139 402.1999997650147 399.0430002344971 402.1999997650147 399.0430002344971C402.1999997650147 399.0430002344971 406.59999963073733 401.02300017407225 406.59999963073733 401.02300017407225C406.59999963073733 401.02300017407225 410.99999949645996 399.4060002234192 410.99999949645996 399.4060002234192 " transform="rotate(6, 400, 400)"></path></g></svg>